<svg width="1600" height="1120" viewBox="0 0 1600 1120" fill="none" xmlns="http://www.w3.org/2000/svg">
<defs>
<linearGradient id="bg" x1="0" y1="0" x2="1600" y2="1120" gradientUnits="userSpaceOnUse"><stop stop-color="#F4F8FC"/><stop offset="1" stop-color="#EAF2FF"/></linearGradient>
<filter id="shadow" x="-20%" y="-20%" width="140%" height="140%"><feDropShadow dx="0" dy="14" stdDeviation="20" flood-color="#9BB7E680"/></filter>
</defs>
<rect width="1600" height="1120" fill="url(#bg)"/>
<rect x="0" y="0" width="96" height="1120" fill="#2C3E50"/>
<rect x="24" y="28" width="48" height="48" rx="14" fill="#1664FF"/><text x="48" y="59" text-anchor="middle" fill="white" font-size="24" font-family="Microsoft YaHei, PingFang SC, sans-serif" font-weight="700">青</text>
<rect x="24" y="116" width="48" height="48" rx="14" fill="#EEF4FF"/>
<rect x="120" y="28" width="1452" height="84" rx="24" fill="#FFFFFF" filter="url(#shadow)"/>
<text x="156" y="62" fill="#1F2D3D" font-size="30" font-family="Microsoft YaHei, PingFang SC, sans-serif" font-weight="700">点位地图中心</text>
<text x="156" y="88" fill="#7B8794" font-size="15" font-family="Microsoft YaHei, PingFang SC, sans-serif">全量点位分布、状态筛选、人工纠偏、待审聚焦与批量调度</text>
<rect x="1160" y="44" width="116" height="38" rx="19" fill="#F5F7FA"/><text x="1218" y="68" text-anchor="middle" fill="#606266" font-size="14" font-family="Microsoft YaHei, PingFang SC, sans-serif">全部项目</text>
<rect x="1288" y="44" width="108" height="38" rx="19" fill="#E8F3FF"/><text x="1342" y="68" text-anchor="middle" fill="#1664FF" font-size="14" font-family="Microsoft YaHei, PingFang SC, sans-serif" font-weight="700">待审核</text>
<rect x="1410" y="40" width="118" height="44" rx="14" fill="#1664FF"/><text x="1469" y="67" text-anchor="middle" fill="white" font-size="15" font-family="Microsoft YaHei, PingFang SC, sans-serif" font-weight="700">批量派发</text>

<rect x="120" y="136" width="300" height="920" rx="26" fill="white" filter="url(#shadow)"/>
<text x="152" y="180" fill="#1F2D3D" font-size="24" font-family="Microsoft YaHei, PingFang SC, sans-serif" font-weight="700">筛选面板</text>
<text x="152" y="208" fill="#909399" font-size="14" font-family="Microsoft YaHei, PingFang SC, sans-serif">按状态、区县、项目、异常类型快速锁定点位</text>
<rect x="152" y="236" width="236" height="48" rx="16" fill="#F7FAFE"/><text x="176" y="266" fill="#606266" font-size="14" font-family="Microsoft YaHei, PingFang SC, sans-serif">项目：亳州入河排污口项目</text>
<rect x="152" y="296" width="236" height="48" rx="16" fill="#F7FAFE"/><text x="176" y="326" fill="#606266" font-size="14" font-family="Microsoft YaHei, PingFang SC, sans-serif">区县：谯城区 / 南岸片区</text>
<rect x="152" y="356" width="112" height="34" rx="17" fill="#E8F3FF"/><text x="208" y="378" text-anchor="middle" fill="#1664FF" font-size="13" font-family="Microsoft YaHei, PingFang SC, sans-serif">待审核</text>
<rect x="276" y="356" width="112" height="34" rx="17" fill="#F5F7FA"/><text x="332" y="378" text-anchor="middle" fill="#606266" font-size="13" font-family="Microsoft YaHei, PingFang SC, sans-serif">驳回重提</text>
<rect x="152" y="410" width="236" height="140" rx="18" fill="#F7FAFE"/>
<text x="176" y="442" fill="#1F2D3D" font-size="16" font-family="Microsoft YaHei, PingFang SC, sans-serif" font-weight="700">状态统计</text>
<circle cx="182" cy="474" r="7" fill="#1664FF"/><text x="198" y="479" fill="#606266" font-size="13" font-family="Microsoft YaHei, PingFang SC, sans-serif">已提交 428</text>
<circle cx="182" cy="506" r="7" fill="#67C23A"/><text x="198" y="511" fill="#606266" font-size="13" font-family="Microsoft YaHei, PingFang SC, sans-serif">已通过 721</text>
<circle cx="182" cy="538" r="7" fill="#F56C6C"/><text x="198" y="543" fill="#606266" font-size="13" font-family="Microsoft YaHei, PingFang SC, sans-serif">驳回 91</text>

<rect x="152" y="572" width="236" height="188" rx="18" fill="#F7FAFE"/>
<text x="176" y="604" fill="#1F2D3D" font-size="16" font-family="Microsoft YaHei, PingFang SC, sans-serif" font-weight="700">异常聚焦</text>
<text x="176" y="636" fill="#606266" font-size="13" font-family="Microsoft YaHei, PingFang SC, sans-serif">定位偏差 > 5m</text>
<text x="176" y="666" fill="#606266" font-size="13" font-family="Microsoft YaHei, PingFang SC, sans-serif">照片时间异常</text>
<text x="176" y="696" fill="#606266" font-size="13" font-family="Microsoft YaHei, PingFang SC, sans-serif">水印缺失</text>
<text x="176" y="726" fill="#606266" font-size="13" font-family="Microsoft YaHei, PingFang SC, sans-serif">联动字段未触发</text>

<rect x="152" y="782" width="236" height="242" rx="18" fill="#1664FF"/>
<text x="176" y="816" fill="white" font-size="18" font-family="Microsoft YaHei, PingFang SC, sans-serif" font-weight="700">点位详情摘要</text>
<text x="176" y="852" fill="#DCE9FF" font-size="13" font-family="Microsoft YaHei, PingFang SC, sans-serif">S-024 北岸排口</text>
<text x="176" y="882" fill="#DCE9FF" font-size="13" font-family="Microsoft YaHei, PingFang SC, sans-serif">状态：待审核</text>
<text x="176" y="912" fill="#DCE9FF" font-size="13" font-family="Microsoft YaHei, PingFang SC, sans-serif">定位偏差：8m</text>
<text x="176" y="942" fill="#DCE9FF" font-size="13" font-family="Microsoft YaHei, PingFang SC, sans-serif">最新版本：v3</text>
<rect x="176" y="972" width="124" height="34" rx="17" fill="white"/><text x="238" y="994" text-anchor="middle" fill="#1664FF" font-size="13" font-family="Microsoft YaHei, PingFang SC, sans-serif" font-weight="700">进入审核</text>

<rect x="444" y="136" width="792" height="920" rx="26" fill="white" filter="url(#shadow)"/>
<text x="476" y="180" fill="#1F2D3D" font-size="24" font-family="Microsoft YaHei, PingFang SC, sans-serif" font-weight="700">地图主视图</text>
<text x="476" y="208" fill="#909399" font-size="14" font-family="Microsoft YaHei, PingFang SC, sans-serif">支持点聚合、状态颜色、人工纠偏轨迹与快速弹层</text>
<rect x="476" y="236" width="728" height="788" rx="24" fill="#EEF4FB"/>
<path d="M516 944C640 834 718 840 832 722C944 607 1034 630 1160 562" stroke="#D4E3F8" stroke-width="18" stroke-linecap="round"/>
<path d="M528 420C668 480 724 364 868 402C1000 438 1098 372 1178 430" stroke="#C1D8FA" stroke-width="12" stroke-linecap="round"/>
<path d="M562 592L692 454L786 544L694 700Z" fill="#E5EFFB"/>
<path d="M824 470L1004 434L1086 616L894 666Z" fill="#DDEAFB"/>
<path d="M650 760L842 664L978 820L748 904Z" fill="#E7F0FB"/>
<circle cx="642" cy="556" r="16" fill="#1664FF"/><circle cx="642" cy="556" r="6" fill="white"/>
<circle cx="744" cy="636" r="16" fill="#67C23A"/><circle cx="744" cy="636" r="6" fill="white"/>
<circle cx="858" cy="524" r="16" fill="#E6A23C"/><circle cx="858" cy="524" r="6" fill="white"/>
<circle cx="932" cy="720" r="16" fill="#F56C6C"/><circle cx="932" cy="720" r="6" fill="white"/>
<circle cx="1058" cy="560" r="16" fill="#1664FF"/><circle cx="1058" cy="560" r="6" fill="white"/>
<circle cx="1108" cy="794" r="16" fill="#E6A23C"/><circle cx="1108" cy="794" r="6" fill="white"/>
<rect x="930" y="446" width="212" height="118" rx="18" fill="white" stroke="#E4E7ED"/>
<text x="954" y="478" fill="#1F2D3D" font-size="17" font-family="Microsoft YaHei, PingFang SC, sans-serif" font-weight="700">S-024 北岸排口</text>
<text x="954" y="506" fill="#606266" font-size="13" font-family="Microsoft YaHei, PingFang SC, sans-serif">状态：待审核</text>
<text x="954" y="532" fill="#606266" font-size="13" font-family="Microsoft YaHei, PingFang SC, sans-serif">采集人：刘晨</text>
<text x="954" y="558" fill="#1664FF" font-size="13" font-family="Microsoft YaHei, PingFang SC, sans-serif">查看版本差异  进入审核</text>

<rect x="1260" y="136" width="312" height="920" rx="26" fill="white" filter="url(#shadow)"/>
<text x="1292" y="180" fill="#1F2D3D" font-size="24" font-family="Microsoft YaHei, PingFang SC, sans-serif" font-weight="700">点位列表</text>
<text x="1292" y="208" fill="#909399" font-size="14" font-family="Microsoft YaHei, PingFang SC, sans-serif">地图与列表联动，方便批量处理</text>
<rect x="1292" y="236" width="248" height="46" rx="16" fill="#F7FAFE"/><text x="1320" y="265" fill="#909399" font-size="13" font-family="Microsoft YaHei, PingFang SC, sans-serif">搜索点位名称 / 编号</text>
<rect x="1292" y="300" width="248" height="94" rx="18" fill="#F9FBFF" stroke="#E7EDF4"/>
<text x="1318" y="334" fill="#1F2D3D" font-size="16" font-family="Microsoft YaHei, PingFang SC, sans-serif" font-weight="700">S-024 北岸排口</text>
<text x="1318" y="360" fill="#606266" font-size="13" font-family="Microsoft YaHei, PingFang SC, sans-serif">v3 · 待审核 · 偏差 8m</text>
<text x="1318" y="382" fill="#1664FF" font-size="13" font-family="Microsoft YaHei, PingFang SC, sans-serif">定位到地图  查看详情</text>
<rect x="1292" y="410" width="248" height="94" rx="18" fill="#F9FBFF" stroke="#E7EDF4"/>
<text x="1318" y="444" fill="#1F2D3D" font-size="16" font-family="Microsoft YaHei, PingFang SC, sans-serif" font-weight="700">S-017 南岸泵站</text>
<text x="1318" y="470" fill="#606266" font-size="13" font-family="Microsoft YaHei, PingFang SC, sans-serif">驳回重提 · 照片异常</text>
<text x="1318" y="492" fill="#1664FF" font-size="13" font-family="Microsoft YaHei, PingFang SC, sans-serif">定位到地图  查看详情</text>
<rect x="1292" y="520" width="248" height="172" rx="18" fill="#F7FAFE"/>
<text x="1318" y="552" fill="#1F2D3D" font-size="16" font-family="Microsoft YaHei, PingFang SC, sans-serif" font-weight="700">批量操作</text>
<text x="1318" y="586" fill="#606266" font-size="13" font-family="Microsoft YaHei, PingFang SC, sans-serif">将选中点位派发给采集员</text>
<text x="1318" y="614" fill="#606266" font-size="13" font-family="Microsoft YaHei, PingFang SC, sans-serif">批量导出待审点位清单</text>
<text x="1318" y="642" fill="#606266" font-size="13" font-family="Microsoft YaHei, PingFang SC, sans-serif">标记重点复核区域</text>
</svg>
