<svg width="1600" height="1120" viewBox="0 0 1600 1120" fill="none" xmlns="http://www.w3.org/2000/svg">
<defs>
<linearGradient id="bg" x1="0" y1="0" x2="1600" y2="1120" gradientUnits="userSpaceOnUse"><stop stop-color="#F4F8FC"/><stop offset="1" stop-color="#EAF2FF"/></linearGradient>
<filter id="shadow" x="-20%" y="-20%" width="140%" height="140%"><feDropShadow dx="0" dy="14" stdDeviation="20" flood-color="#9BB7E680"/></filter>
</defs>
<rect width="1600" height="1120" fill="url(#bg)"/>
<rect x="0" y="0" width="96" height="1120" fill="#2C3E50"/>
<rect x="24" y="28" width="48" height="48" rx="14" fill="#1664FF"/><text x="48" y="59" text-anchor="middle" fill="white" font-size="24" font-family="Microsoft YaHei, PingFang SC, sans-serif" font-weight="700">青</text>
<rect x="24" y="320" width="48" height="48" rx="14" fill="#EEF4FF"/>
<rect x="120" y="28" width="1452" height="84" rx="24" fill="#FFFFFF" filter="url(#shadow)"/>
<text x="156" y="62" fill="#1F2D3D" font-size="30" font-family="Microsoft YaHei, PingFang SC, sans-serif" font-weight="700">审核详情与版本对比</text>
<text x="156" y="88" fill="#7B8794" font-size="15" font-family="Microsoft YaHei, PingFang SC, sans-serif">围绕单个点位完成地图校验、图片核验、字段审阅、版本差异与通过/驳回决策</text>
<rect x="1308" y="40" width="98" height="44" rx="14" fill="#FDEDEE"/><text x="1357" y="67" text-anchor="middle" fill="#F56C6C" font-size="15" font-family="Microsoft YaHei, PingFang SC, sans-serif" font-weight="700">驳回</text>
<rect x="1418" y="40" width="122" height="44" rx="14" fill="#1664FF"/><text x="1479" y="67" text-anchor="middle" fill="white" font-size="15" font-family="Microsoft YaHei, PingFang SC, sans-serif" font-weight="700">审核通过</text>
<rect x="120" y="136" width="1452" height="120" rx="24" fill="#FFFFFF" filter="url(#shadow)"/>
<text x="156" y="180" fill="#1F2D3D" font-size="28" font-family="Microsoft YaHei, PingFang SC, sans-serif" font-weight="700">A1 标段 / 西闸口 001</text>
<text x="156" y="210" fill="#606266" font-size="15" font-family="Microsoft YaHei, PingFang SC, sans-serif">最新版本 v3 · 采集人 刘晨 · 提交时间 2026.04.28 10:24 · 图片 6 张 · 自动水印已生成</text>
<rect x="1320" y="164" width="100" height="30" rx="15" fill="#FFF4E8"/><text x="1370" y="184" text-anchor="middle" fill="#E6A23C" font-size="12" font-family="Microsoft YaHei, PingFang SC, sans-serif" font-weight="700">待审核</text>
<rect x="1432" y="164" width="108" height="30" rx="15" fill="#E8F3FF"/><text x="1486" y="184" text-anchor="middle" fill="#1664FF" font-size="12" font-family="Microsoft YaHei, PingFang SC, sans-serif" font-weight="700">生成 PDF 报告</text>
<rect x="120" y="284" width="430" height="772" rx="26" fill="white" filter="url(#shadow)"/>
<text x="152" y="328" fill="#1F2D3D" font-size="24" font-family="Microsoft YaHei, PingFang SC, sans-serif" font-weight="700">照片与地图校验</text><text x="152" y="356" fill="#909399" font-size="14" font-family="Microsoft YaHei, PingFang SC, sans-serif">先看真实采集证据，再做字段审核，降低误判</text>
<rect x="152" y="384" width="366" height="216" rx="20" fill="#E7EEF8"/>
<rect x="172" y="404" width="100" height="82" rx="14" fill="#D5E3F5"/><rect x="284" y="404" width="100" height="82" rx="14" fill="#D5E3F5"/><rect x="396" y="404" width="100" height="82" rx="14" fill="#D5E3F5"/><rect x="172" y="498" width="100" height="82" rx="14" fill="#D5E3F5"/><rect x="284" y="498" width="100" height="82" rx="14" fill="#D5E3F5"/><rect x="396" y="498" width="100" height="82" rx="14" fill="#D5E3F5"/>
<text x="176" y="595" fill="#606266" font-size="12" font-family="Microsoft YaHei, PingFang SC, sans-serif">图片下方附拍摄时间、经纬度和采集人水印</text>
<rect x="152" y="626" width="366" height="220" rx="20" fill="#EEF4FB"/>
<path d="M182 794C240 742 288 746 344 700C386 666 432 668 486 688" stroke="#C3D8F8" stroke-width="12" stroke-linecap="round"/>
<circle cx="324" cy="732" r="14" fill="#1664FF"/><circle cx="400" cy="698" r="14" fill="#F56C6C"/>
<rect x="336" y="646" width="156" height="84" rx="16" fill="white" stroke="#E4E7ED"/><text x="356" y="674" fill="#1F2D3D" font-size="14" font-family="Microsoft YaHei, PingFang SC, sans-serif" font-weight="700">定位偏差提醒</text><text x="356" y="700" fill="#606266" font-size="12" font-family="Microsoft YaHei, PingFang SC, sans-serif">系统点位与实际打点偏差 8m</text><text x="356" y="722" fill="#1664FF" font-size="12" font-family="Microsoft YaHei, PingFang SC, sans-serif">查看纠偏轨迹 ></text>
<rect x="152" y="872" width="366" height="152" rx="20" fill="#F7FAFE"/><text x="176" y="906" fill="#1F2D3D" font-size="16" font-family="Microsoft YaHei, PingFang SC, sans-serif" font-weight="700">快速结论提示</text><text x="176" y="936" fill="#606266" font-size="13" font-family="Microsoft YaHei, PingFang SC, sans-serif">1. 定位存在轻微偏差，需确认是否人工纠偏。</text><text x="176" y="964" fill="#606266" font-size="13" font-family="Microsoft YaHei, PingFang SC, sans-serif">2. 第 2 张与第 5 张图片时间跨度异常，建议核对。</text><text x="176" y="992" fill="#606266" font-size="13" font-family="Microsoft YaHei, PingFang SC, sans-serif">3. 可直接复用驳回意见模板提高审核效率。</text>
<rect x="574" y="284" width="510" height="772" rx="26" fill="white" filter="url(#shadow)"/>
<text x="606" y="328" fill="#1F2D3D" font-size="24" font-family="Microsoft YaHei, PingFang SC, sans-serif" font-weight="700">表单详情</text><text x="606" y="356" fill="#909399" font-size="14" font-family="Microsoft YaHei, PingFang SC, sans-serif">按模板字段逐项校验，异常字段高亮提示</text>
<rect x="606" y="388" width="446" height="78" rx="18" fill="#F7FAFE"/><text x="634" y="420" fill="#1F2D3D" font-size="16" font-family="Microsoft YaHei, PingFang SC, sans-serif" font-weight="700">排口名称</text><text x="634" y="446" fill="#606266" font-size="14" font-family="Microsoft YaHei, PingFang SC, sans-serif">西闸口 001</text>
<rect x="606" y="482" width="446" height="78" rx="18" fill="#F7FAFE"/><text x="634" y="514" fill="#1F2D3D" font-size="16" font-family="Microsoft YaHei, PingFang SC, sans-serif" font-weight="700">排口类型</text><text x="634" y="540" fill="#606266" font-size="14" font-family="Microsoft YaHei, PingFang SC, sans-serif">工业</text>
<rect x="606" y="576" width="446" height="96" rx="18" fill="#FFF8F0" stroke="#F5C27A"/><text x="634" y="608" fill="#1F2D3D" font-size="16" font-family="Microsoft YaHei, PingFang SC, sans-serif" font-weight="700">供电方式</text><text x="634" y="634" fill="#606266" font-size="14" font-family="Microsoft YaHei, PingFang SC, sans-serif">太阳能</text><text x="634" y="658" fill="#E6A23C" font-size="12" font-family="Microsoft YaHei, PingFang SC, sans-serif">联动字段“日照条件”已显示，建议检查填写一致性</text>
<rect x="606" y="688" width="446" height="96" rx="18" fill="#F7FAFE"/><text x="634" y="720" fill="#1F2D3D" font-size="16" font-family="Microsoft YaHei, PingFang SC, sans-serif" font-weight="700">日照条件</text><text x="634" y="746" fill="#606266" font-size="14" font-family="Microsoft YaHei, PingFang SC, sans-serif">一般</text><text x="634" y="770" fill="#909399" font-size="12" font-family="Microsoft YaHei, PingFang SC, sans-serif">由联动规则触发显示</text>
<rect x="606" y="802" width="446" height="138" rx="18" fill="#F7FAFE"/><text x="634" y="834" fill="#1F2D3D" font-size="16" font-family="Microsoft YaHei, PingFang SC, sans-serif" font-weight="700">审核意见</text><rect x="634" y="854" width="390" height="64" rx="12" fill="white" stroke="#E4E7ED"/><text x="650" y="888" fill="#909399" font-size="13" font-family="Microsoft YaHei, PingFang SC, sans-serif">填写通过说明或驳回原因，可插入常用意见模板</text>
<rect x="1108" y="284" width="464" height="772" rx="26" fill="white" filter="url(#shadow)"/>
<text x="1140" y="328" fill="#1F2D3D" font-size="24" font-family="Microsoft YaHei, PingFang SC, sans-serif" font-weight="700">版本对比与历史</text><text x="1140" y="356" fill="#909399" font-size="14" font-family="Microsoft YaHei, PingFang SC, sans-serif">对比驳回前后变化，避免重复指出已修正问题</text>
<rect x="1140" y="388" width="400" height="244" rx="20" fill="#F7FAFE"/><text x="1168" y="420" fill="#1F2D3D" font-size="16" font-family="Microsoft YaHei, PingFang SC, sans-serif" font-weight="700">v3 vs v2 差异</text><text x="1168" y="456" fill="#67C23A" font-size="13" font-family="Microsoft YaHei, PingFang SC, sans-serif">+ 重新上传现场照片 2 张</text><text x="1168" y="486" fill="#67C23A" font-size="13" font-family="Microsoft YaHei, PingFang SC, sans-serif">+ 修正拍摄时间水印缺失</text><text x="1168" y="516" fill="#F56C6C" font-size="13" font-family="Microsoft YaHei, PingFang SC, sans-serif">- 定位点仍偏移 8m</text><text x="1168" y="546" fill="#606266" font-size="13" font-family="Microsoft YaHei, PingFang SC, sans-serif">驳回意见引用：请核对打点位置并补拍上游环境照</text>
<rect x="1140" y="654" width="400" height="156" rx="20" fill="#F7FAFE"/><text x="1168" y="686" fill="#1F2D3D" font-size="16" font-family="Microsoft YaHei, PingFang SC, sans-serif" font-weight="700">审核时间线</text><line x1="1188" y1="708" x2="1188" y2="786" stroke="#C7D7EF" stroke-width="2"/><circle cx="1188" cy="718" r="7" fill="#1664FF"/><circle cx="1188" cy="748" r="7" fill="#F56C6C"/><circle cx="1188" cy="778" r="7" fill="#67C23A"/><text x="1210" y="723" fill="#606266" font-size="12" font-family="Microsoft YaHei, PingFang SC, sans-serif">v3 提交审核</text><text x="1210" y="753" fill="#606266" font-size="12" font-family="Microsoft YaHei, PingFang SC, sans-serif">v2 驳回：定位偏移</text><text x="1210" y="783" fill="#606266" font-size="12" font-family="Microsoft YaHei, PingFang SC, sans-serif">v1 初次采集完成</text>
<rect x="1140" y="832" width="400" height="192" rx="20" fill="#1664FF"/><text x="1168" y="866" fill="white" font-size="18" font-family="Microsoft YaHei, PingFang SC, sans-serif" font-weight="700">常用驳回模板</text><text x="1168" y="900" fill="#DCE9FF" font-size="13" font-family="Microsoft YaHei, PingFang SC, sans-serif">定位偏移，请重新进行地图纠偏并补充周边环境照。</text><text x="1168" y="934" fill="#DCE9FF" font-size="13" font-family="Microsoft YaHei, PingFang SC, sans-serif">照片水印缺失，请重新采集，确保时间与经纬度完整显示。</text><rect x="1168" y="970" width="132" height="32" rx="16" fill="white"/><text x="1234" y="991" text-anchor="middle" fill="#1664FF" font-size="12" font-family="Microsoft YaHei, PingFang SC, sans-serif" font-weight="700">一键插入意见</text>
</svg>
