<svg width="1600" height="1120" viewBox="0 0 1600 1120" fill="none" xmlns="http://www.w3.org/2000/svg">
<defs><linearGradient id="bg" x1="0" y1="0" x2="1600" y2="1120" gradientUnits="userSpaceOnUse"><stop stop-color="#F4F8FC"/><stop offset="1" stop-color="#EAF2FF"/></linearGradient><filter id="shadow" x="-20%" y="-20%" width="140%" height="140%"><feDropShadow dx="0" dy="14" stdDeviation="20" flood-color="#9BB7E680"/></filter></defs>
<rect width="1600" height="1120" fill="url(#bg)"/>
<rect x="0" y="0" width="96" height="1120" fill="#2C3E50"/>
<rect x="24" y="28" width="48" height="48" rx="14" fill="#1664FF"/><text x="48" y="59" text-anchor="middle" fill="white" font-size="24" font-family="Microsoft YaHei, PingFang SC, sans-serif" font-weight="700">青</text>
<rect x="24" y="184" width="48" height="48" rx="14" fill="#EEF4FF"/>
<rect x="120" y="28" width="1452" height="84" rx="24" fill="#FFFFFF" filter="url(#shadow)"/>
<text x="156" y="62" fill="#1F2D3D" font-size="30" font-family="Microsoft YaHei, PingFang SC, sans-serif" font-weight="700">项目详情 / 标段进度</text>
<text x="156" y="88" fill="#7B8794" font-size="15" font-family="Microsoft YaHei, PingFang SC, sans-serif">项目维度查看标段推进、审核积压、人员负荷与阶段风险</text>
<rect x="1392" y="40" width="116" height="44" rx="14" fill="#1664FF"/><text x="1450" y="67" text-anchor="middle" fill="white" font-size="15" font-family="Microsoft YaHei, PingFang SC, sans-serif" font-weight="700">导出项目报告</text>

<rect x="120" y="136" width="1452" height="160" rx="26" fill="#FFFFFF" filter="url(#shadow)"/>
<text x="156" y="182" fill="#1F2D3D" font-size="32" font-family="Microsoft YaHei, PingFang SC, sans-serif" font-weight="700">亳州入河排污口项目</text>
<text x="156" y="214" fill="#606266" font-size="15" font-family="Microsoft YaHei, PingFang SC, sans-serif">QH-2026-01 · 负责人 李航 · 周期 2026.04.01 - 2026.09.30 · 模板 3 套 · 第三方协同已启用</text>
<rect x="1080" y="164" width="120" height="90" rx="20" fill="#F7FAFE"/><text x="1104" y="194" fill="#909399" font-size="13" font-family="Microsoft YaHei, PingFang SC, sans-serif">总点位</text><text x="1104" y="234" fill="#1F2D3D" font-size="34" font-family="Microsoft YaHei, PingFang SC, sans-serif" font-weight="700">1286</text>
<rect x="1218" y="164" width="120" height="90" rx="20" fill="#F7FAFE"/><text x="1242" y="194" fill="#909399" font-size="13" font-family="Microsoft YaHei, PingFang SC, sans-serif">待审核</text><text x="1242" y="234" fill="#1F2D3D" font-size="34" font-family="Microsoft YaHei, PingFang SC, sans-serif" font-weight="700">46</text>
<rect x="1356" y="164" width="120" height="90" rx="20" fill="#F7FAFE"/><text x="1380" y="194" fill="#909399" font-size="13" font-family="Microsoft YaHei, PingFang SC, sans-serif">通过率</text><text x="1380" y="234" fill="#1F2D3D" font-size="34" font-family="Microsoft YaHei, PingFang SC, sans-serif" font-weight="700">93%</text>

<rect x="120" y="324" width="914" height="732" rx="26" fill="white" filter="url(#shadow)"/>
<text x="152" y="368" fill="#1F2D3D" font-size="24" font-family="Microsoft YaHei, PingFang SC, sans-serif" font-weight="700">标段推进</text>
<text x="152" y="396" fill="#909399" font-size="14" font-family="Microsoft YaHei, PingFang SC, sans-serif">按标段看采集完成度、审核积压和延期风险</text>
<rect x="152" y="424" width="850" height="108" rx="20" fill="#F9FBFF" stroke="#E7EDF4"/>
<text x="182" y="460" fill="#1F2D3D" font-size="18" font-family="Microsoft YaHei, PingFang SC, sans-serif" font-weight="700">A1 标段</text><text x="182" y="486" fill="#606266" font-size="13" font-family="Microsoft YaHei, PingFang SC, sans-serif">负责区域：北岸主流 · 采集员 8 人 · 审核员 2 人</text>
<rect x="460" y="454" width="220" height="14" rx="7" fill="#EAF1FB"/><rect x="460" y="454" width="172" height="14" rx="7" fill="#1664FF"/><text x="460" y="492" fill="#606266" font-size="13" font-family="Microsoft YaHei, PingFang SC, sans-serif">964 / 1230 已完成</text>
<rect x="836" y="448" width="110" height="30" rx="15" fill="#EDF9E8"/><text x="891" y="468" text-anchor="middle" fill="#67C23A" font-size="12" font-family="Microsoft YaHei, PingFang SC, sans-serif" font-weight="700">正常推进</text>

<rect x="152" y="550" width="850" height="108" rx="20" fill="#F9FBFF" stroke="#E7EDF4"/>
<text x="182" y="586" fill="#1F2D3D" font-size="18" font-family="Microsoft YaHei, PingFang SC, sans-serif" font-weight="700">南岸复核段</text><text x="182" y="612" fill="#606266" font-size="13" font-family="Microsoft YaHei, PingFang SC, sans-serif">复核点位密集 · 驳回率偏高 · 需优先调度审核</text>
<rect x="460" y="580" width="220" height="14" rx="7" fill="#FCEFEF"/><rect x="460" y="580" width="98" height="14" rx="7" fill="#F56C6C"/><text x="460" y="618" fill="#606266" font-size="13" font-family="Microsoft YaHei, PingFang SC, sans-serif">126 / 312 已完成</text>
<rect x="836" y="574" width="110" height="30" rx="15" fill="#FFF4E8"/><text x="891" y="594" text-anchor="middle" fill="#E6A23C" font-size="12" font-family="Microsoft YaHei, PingFang SC, sans-serif" font-weight="700">延期预警</text>

<rect x="152" y="684" width="850" height="330" rx="20" fill="#F7FAFE"/>
<text x="182" y="720" fill="#1F2D3D" font-size="18" font-family="Microsoft YaHei, PingFang SC, sans-serif" font-weight="700">阶段进度</text>
<rect x="214" y="792" width="96" height="150" rx="18" fill="#EAF1FB"/><rect x="214" y="856" width="96" height="86" rx="18" fill="#1664FF"/>
<rect x="350" y="750" width="96" height="192" rx="18" fill="#EAF1FB"/><rect x="350" y="806" width="96" height="136" rx="18" fill="#1664FF"/>
<rect x="486" y="704" width="96" height="238" rx="18" fill="#EAF1FB"/><rect x="486" y="760" width="96" height="182" rx="18" fill="#1664FF"/>
<rect x="622" y="770" width="96" height="172" rx="18" fill="#FCEFEF"/><rect x="622" y="838" width="96" height="104" rx="18" fill="#F56C6C"/>
<text x="238" y="968" fill="#606266" font-size="12" font-family="Microsoft YaHei, PingFang SC, sans-serif">4 月</text><text x="374" y="968" fill="#606266" font-size="12" font-family="Microsoft YaHei, PingFang SC, sans-serif">5 月</text><text x="510" y="968" fill="#606266" font-size="12" font-family="Microsoft YaHei, PingFang SC, sans-serif">6 月</text><text x="646" y="968" fill="#606266" font-size="12" font-family="Microsoft YaHei, PingFang SC, sans-serif">7 月</text>

<rect x="1060" y="324" width="512" height="352" rx="26" fill="white" filter="url(#shadow)"/>
<text x="1092" y="368" fill="#1F2D3D" font-size="24" font-family="Microsoft YaHei, PingFang SC, sans-serif" font-weight="700">审核压力</text>
<text x="1092" y="396" fill="#909399" font-size="14" font-family="Microsoft YaHei, PingFang SC, sans-serif">高压区需要优先清空，避免现场重提积压</text>
<rect x="1092" y="426" width="448" height="88" rx="18" fill="#F7FAFE"/><text x="1118" y="458" fill="#1F2D3D" font-size="16" font-family="Microsoft YaHei, PingFang SC, sans-serif" font-weight="700">待审核 46</text><text x="1118" y="486" fill="#606266" font-size="13" font-family="Microsoft YaHei, PingFang SC, sans-serif">其中 12 单为驳回重提，建议集中处理</text>
<rect x="1092" y="530" width="448" height="118" rx="18" fill="#F7FAFE"/><text x="1118" y="562" fill="#1F2D3D" font-size="16" font-family="Microsoft YaHei, PingFang SC, sans-serif" font-weight="700">审核员负荷</text>
<text x="1118" y="594" fill="#606266" font-size="13" font-family="Microsoft YaHei, PingFang SC, sans-serif">张敏 24 单</text><rect x="1208" y="582" width="220" height="12" rx="6" fill="#EAF1FB"/><rect x="1208" y="582" width="148" height="12" rx="6" fill="#1664FF"/>
<text x="1118" y="626" fill="#606266" font-size="13" font-family="Microsoft YaHei, PingFang SC, sans-serif">王珂 22 单</text><rect x="1208" y="614" width="220" height="12" rx="6" fill="#FCEFEF"/><rect x="1208" y="614" width="136" height="12" rx="6" fill="#F56C6C"/>

<rect x="1060" y="704" width="512" height="352" rx="26" fill="white" filter="url(#shadow)"/>
<text x="1092" y="748" fill="#1F2D3D" font-size="24" font-family="Microsoft YaHei, PingFang SC, sans-serif" font-weight="700">项目动作区</text>
<text x="1092" y="776" fill="#909399" font-size="14" font-family="Microsoft YaHei, PingFang SC, sans-serif">集中承接项目级操作</text>
<rect x="1092" y="806" width="448" height="70" rx="18" fill="#F9FBFF" stroke="#E7EDF4"/><text x="1120" y="848" fill="#1664FF" font-size="14" font-family="Microsoft YaHei, PingFang SC, sans-serif">查看点位地图  调整模板  导出阶段报告</text>
<rect x="1092" y="892" width="448" height="118" rx="18" fill="#1664FF"/><text x="1120" y="926" fill="white" font-size="18" font-family="Microsoft YaHei, PingFang SC, sans-serif" font-weight="700">风险提醒</text><text x="1120" y="958" fill="#DCE9FF" font-size="13" font-family="Microsoft YaHei, PingFang SC, sans-serif">南岸复核段连续三天新增驳回，建议：</text><text x="1120" y="986" fill="#DCE9FF" font-size="13" font-family="Microsoft YaHei, PingFang SC, sans-serif">1. 增加审核人手  2. 复查模板字段  3. 统一驳回口径</text>
</svg>
