<svg width="1600" height="1120" viewBox="0 0 1600 1120" fill="none" xmlns="http://www.w3.org/2000/svg">
<defs><linearGradient id="bg" x1="0" y1="0" x2="1600" y2="1120" gradientUnits="userSpaceOnUse"><stop stop-color="#F4F8FC"/><stop offset="1" stop-color="#EAF2FF"/></linearGradient><filter id="shadow" x="-20%" y="-20%" width="140%" height="140%"><feDropShadow dx="0" dy="14" stdDeviation="20" flood-color="#9BB7E680"/></filter></defs>
<rect width="1600" height="1120" fill="url(#bg)"/>
<rect x="0" y="0" width="96" height="1120" fill="#2C3E50"/>
<rect x="24" y="28" width="48" height="48" rx="14" fill="#1664FF"/><text x="48" y="59" text-anchor="middle" fill="white" font-size="24" font-family="Microsoft YaHei, PingFang SC, sans-serif" font-weight="700">青</text>
<rect x="24" y="388" width="48" height="48" rx="14" fill="#EEF4FF"/>
<rect x="120" y="28" width="1452" height="84" rx="24" fill="#FFFFFF" filter="url(#shadow)"/>
<text x="156" y="62" fill="#1F2D3D" font-size="30" font-family="Microsoft YaHei, PingFang SC, sans-serif" font-weight="700">数据导出与报表中心</text>
<text x="156" y="88" fill="#7B8794" font-size="15" font-family="Microsoft YaHei, PingFang SC, sans-serif">项目数据、点位清单、审核结果、A4 PDF 与阶段性统计报表统一出口</text>
<rect x="1398" y="40" width="126" height="44" rx="14" fill="#1664FF"/><text x="1461" y="67" text-anchor="middle" fill="white" font-size="15" font-family="Microsoft YaHei, PingFang SC, sans-serif" font-weight="700">新建导出任务</text>

<rect x="120" y="136" width="420" height="920" rx="26" fill="white" filter="url(#shadow)"/>
<text x="152" y="180" fill="#1F2D3D" font-size="24" font-family="Microsoft YaHei, PingFang SC, sans-serif" font-weight="700">导出配置</text>
<text x="152" y="208" fill="#909399" font-size="14" font-family="Microsoft YaHei, PingFang SC, sans-serif">按项目、时间、状态、格式与字段范围自定义导出</text>
<rect x="152" y="238" width="356" height="48" rx="16" fill="#F7FAFE"/><text x="176" y="268" fill="#606266" font-size="14" font-family="Microsoft YaHei, PingFang SC, sans-serif">项目：亳州入河排污口项目</text>
<rect x="152" y="300" width="170" height="48" rx="16" fill="#F7FAFE"/><text x="176" y="330" fill="#606266" font-size="14" font-family="Microsoft YaHei, PingFang SC, sans-serif">开始：2026.04.01</text>
<rect x="338" y="300" width="170" height="48" rx="16" fill="#F7FAFE"/><text x="362" y="330" fill="#606266" font-size="14" font-family="Microsoft YaHei, PingFang SC, sans-serif">结束：2026.04.30</text>
<text x="152" y="384" fill="#1F2D3D" font-size="16" font-family="Microsoft YaHei, PingFang SC, sans-serif" font-weight="700">导出内容</text>
<rect x="152" y="404" width="112" height="34" rx="17" fill="#E8F3FF"/><text x="208" y="426" text-anchor="middle" fill="#1664FF" font-size="13" font-family="Microsoft YaHei, PingFang SC, sans-serif">点位清单</text>
<rect x="276" y="404" width="112" height="34" rx="17" fill="#F5F7FA"/><text x="332" y="426" text-anchor="middle" fill="#606266" font-size="13" font-family="Microsoft YaHei, PingFang SC, sans-serif">审核结果</text>
<rect x="400" y="404" width="108" height="34" rx="17" fill="#F5F7FA"/><text x="454" y="426" text-anchor="middle" fill="#606266" font-size="13" font-family="Microsoft YaHei, PingFang SC, sans-serif">PDF 报告</text>
<text x="152" y="474" fill="#1F2D3D" font-size="16" font-family="Microsoft YaHei, PingFang SC, sans-serif" font-weight="700">字段范围</text>
<rect x="152" y="494" width="356" height="154" rx="18" fill="#F7FAFE"/>
<text x="176" y="526" fill="#606266" font-size="13" font-family="Microsoft YaHei, PingFang SC, sans-serif">已勾选：项目编号、点位名称、经纬度、状态、版本、审核意见、图片 URL</text>
<text x="176" y="556" fill="#606266" font-size="13" font-family="Microsoft YaHei, PingFang SC, sans-serif">支持按模板字段动态展开</text>
<rect x="152" y="682" width="356" height="160" rx="18" fill="#1664FF"/>
<text x="176" y="716" fill="white" font-size="18" font-family="Microsoft YaHei, PingFang SC, sans-serif" font-weight="700">导出格式</text>
<text x="176" y="748" fill="#DCE9FF" font-size="13" font-family="Microsoft YaHei, PingFang SC, sans-serif">Excel / CSV / ZIP(PDF) / 单点位 A4 PDF</text>
<rect x="176" y="778" width="138" height="34" rx="17" fill="white"/><text x="245" y="800" text-anchor="middle" fill="#1664FF" font-size="13" font-family="Microsoft YaHei, PingFang SC, sans-serif" font-weight="700">立即生成导出</text>

<rect x="564" y="136" width="1008" height="436" rx="26" fill="white" filter="url(#shadow)"/>
<text x="596" y="180" fill="#1F2D3D" font-size="24" font-family="Microsoft YaHei, PingFang SC, sans-serif" font-weight="700">导出任务列表</text>
<text x="596" y="208" fill="#909399" font-size="14" font-family="Microsoft YaHei, PingFang SC, sans-serif">记录任务状态、生成耗时、文件体积与下载入口</text>
<rect x="596" y="236" width="944" height="66" rx="18" fill="#F7FAFE"/>
<text x="626" y="276" fill="#909399" font-size="13" font-family="Microsoft YaHei, PingFang SC, sans-serif">任务名称</text><text x="930" y="276" fill="#909399" font-size="13" font-family="Microsoft YaHei, PingFang SC, sans-serif">类型</text><text x="1090" y="276" fill="#909399" font-size="13" font-family="Microsoft YaHei, PingFang SC, sans-serif">状态</text><text x="1248" y="276" fill="#909399" font-size="13" font-family="Microsoft YaHei, PingFang SC, sans-serif">时间</text><text x="1406" y="276" fill="#909399" font-size="13" font-family="Microsoft YaHei, PingFang SC, sans-serif">操作</text>
<rect x="596" y="320" width="944" height="92" rx="18" fill="#FFFFFF" stroke="#E7EDF4"/>
<text x="626" y="356" fill="#1F2D3D" font-size="17" font-family="Microsoft YaHei, PingFang SC, sans-serif" font-weight="700">4 月项目点位清单导出</text><text x="626" y="382" fill="#606266" font-size="13" font-family="Microsoft YaHei, PingFang SC, sans-serif">包含 1286 条记录 · 32MB</text><text x="930" y="368" fill="#606266" font-size="14" font-family="Microsoft YaHei, PingFang SC, sans-serif">Excel</text><rect x="1080" y="352" width="92" height="30" rx="15" fill="#EDF9E8"/><text x="1126" y="372" text-anchor="middle" fill="#67C23A" font-size="12" font-family="Microsoft YaHei, PingFang SC, sans-serif" font-weight="700">已完成</text><text x="1248" y="368" fill="#606266" font-size="14" font-family="Microsoft YaHei, PingFang SC, sans-serif">10:24</text><text x="1406" y="368" fill="#1664FF" font-size="14" font-family="Microsoft YaHei, PingFang SC, sans-serif">下载  复制链接</text>
<rect x="596" y="430" width="944" height="92" rx="18" fill="#FFFFFF" stroke="#E7EDF4"/>
<text x="626" y="466" fill="#1F2D3D" font-size="17" font-family="Microsoft YaHei, PingFang SC, sans-serif" font-weight="700">待审核点位 PDF 打包</text><text x="626" y="492" fill="#606266" font-size="13" font-family="Microsoft YaHei, PingFang SC, sans-serif">46 份 A4 报告 · ZIP 归档</text><text x="930" y="478" fill="#606266" font-size="14" font-family="Microsoft YaHei, PingFang SC, sans-serif">ZIP / PDF</text><rect x="1080" y="462" width="92" height="30" rx="15" fill="#FFF4E8"/><text x="1126" y="482" text-anchor="middle" fill="#E6A23C" font-size="12" font-family="Microsoft YaHei, PingFang SC, sans-serif" font-weight="700">生成中</text><text x="1248" y="478" fill="#606266" font-size="14" font-family="Microsoft YaHei, PingFang SC, sans-serif">09:58</text><text x="1406" y="478" fill="#1664FF" font-size="14" font-family="Microsoft YaHei, PingFang SC, sans-serif">查看进度</text>

<rect x="564" y="600" width="486" height="456" rx="26" fill="white" filter="url(#shadow)"/>
<text x="596" y="644" fill="#1F2D3D" font-size="24" font-family="Microsoft YaHei, PingFang SC, sans-serif" font-weight="700">报表预览</text>
<text x="596" y="672" fill="#909399" font-size="14" font-family="Microsoft YaHei, PingFang SC, sans-serif">常用统计报表可直接在后台预览后导出</text>
<rect x="596" y="700" width="422" height="314" rx="20" fill="#F7FAFE"/>
<rect x="640" y="842" width="54" height="120" rx="16" fill="#EAF1FB"/><rect x="640" y="892" width="54" height="70" rx="16" fill="#1664FF"/>
<rect x="728" y="802" width="54" height="160" rx="16" fill="#EAF1FB"/><rect x="728" y="844" width="54" height="118" rx="16" fill="#1664FF"/>
<rect x="816" y="760" width="54" height="202" rx="16" fill="#EAF1FB"/><rect x="816" y="818" width="54" height="144" rx="16" fill="#1664FF"/>
<rect x="904" y="820" width="54" height="142" rx="16" fill="#FCEFEF"/><rect x="904" y="874" width="54" height="88" rx="16" fill="#F56C6C"/>
<text x="636" y="984" fill="#606266" font-size="12" font-family="Microsoft YaHei, PingFang SC, sans-serif">提交</text><text x="724" y="984" fill="#606266" font-size="12" font-family="Microsoft YaHei, PingFang SC, sans-serif">通过</text><text x="812" y="984" fill="#606266" font-size="12" font-family="Microsoft YaHei, PingFang SC, sans-serif">完成</text><text x="900" y="984" fill="#606266" font-size="12" font-family="Microsoft YaHei, PingFang SC, sans-serif">驳回</text>

<rect x="1078" y="600" width="494" height="456" rx="26" fill="white" filter="url(#shadow)"/>
<text x="1110" y="644" fill="#1F2D3D" font-size="24" font-family="Microsoft YaHei, PingFang SC, sans-serif" font-weight="700">下载与归档</text>
<text x="1110" y="672" fill="#909399" font-size="14" font-family="Microsoft YaHei, PingFang SC, sans-serif">支持链接分享、过期控制与操作留痕</text>
<rect x="1110" y="704" width="430" height="102" rx="18" fill="#F7FAFE"/><text x="1138" y="738" fill="#1F2D3D" font-size="16" font-family="Microsoft YaHei, PingFang SC, sans-serif" font-weight="700">分享链接</text><text x="1138" y="766" fill="#606266" font-size="13" font-family="Microsoft YaHei, PingFang SC, sans-serif">第三方下载链接默认 72 小时有效，可单独撤回</text>
<rect x="1110" y="826" width="430" height="198" rx="18" fill="#1664FF"/><text x="1138" y="860" fill="white" font-size="18" font-family="Microsoft YaHei, PingFang SC, sans-serif" font-weight="700">归档策略</text><text x="1138" y="894" fill="#DCE9FF" font-size="13" font-family="Microsoft YaHei, PingFang SC, sans-serif">1. 导出任务记录操作人、时间、范围</text><text x="1138" y="924" fill="#DCE9FF" font-size="13" font-family="Microsoft YaHei, PingFang SC, sans-serif">2. 敏感导出支持二次确认与日志追踪</text><text x="1138" y="954" fill="#DCE9FF" font-size="13" font-family="Microsoft YaHei, PingFang SC, sans-serif">3. PDF 报告按点位编号自动归档</text>
</svg>
