<svg width="1600" height="1120" viewBox="0 0 1600 1120" fill="none" xmlns="http://www.w3.org/2000/svg">
<defs>
<linearGradient id="bg" x1="0" y1="0" x2="1600" y2="1120" gradientUnits="userSpaceOnUse"><stop stop-color="#F4F8FC"/><stop offset="1" stop-color="#EAF2FF"/></linearGradient>
<linearGradient id="hero" x1="0" y1="0" x2="1" y2="1"><stop stop-color="#1664FF"/><stop offset="1" stop-color="#6AA7FF"/></linearGradient>
<filter id="shadow" x="-20%" y="-20%" width="140%" height="140%"><feDropShadow dx="0" dy="14" stdDeviation="20" flood-color="#9BB7E680"/></filter>
</defs>
<rect width="1600" height="1120" fill="url(#bg)"/>
<rect x="0" y="0" width="96" height="1120" fill="#2C3E50"/>
<rect x="24" y="28" width="48" height="48" rx="14" fill="#1664FF"/><text x="48" y="59" text-anchor="middle" fill="white" font-size="24" font-family="Microsoft YaHei, PingFang SC, sans-serif" font-weight="700">青</text>
<rect x="24" y="184" width="48" height="48" rx="14" fill="#EEF4FF"/>
<rect x="120" y="28" width="1452" height="84" rx="24" fill="#FFFFFF" filter="url(#shadow)"/>
<text x="156" y="62" fill="#1F2D3D" font-size="30" font-family="Microsoft YaHei, PingFang SC, sans-serif" font-weight="700">项目管理</text>
<text x="156" y="88" fill="#7B8794" font-size="15" font-family="Microsoft YaHei, PingFang SC, sans-serif">项目台账、成员分工、进度分布、数据导出与风险预警</text>
<rect x="1396" y="40" width="108" height="44" rx="14" fill="#1664FF"/><text x="1450" y="67" text-anchor="middle" fill="white" font-size="15" font-family="Microsoft YaHei, PingFang SC, sans-serif" font-weight="700">新建项目</text>
<rect x="120" y="136" width="1452" height="164" rx="28" fill="url(#hero)" filter="url(#shadow)"/>
<text x="156" y="188" fill="white" font-size="34" font-family="Microsoft YaHei, PingFang SC, sans-serif" font-weight="700">项目台账是后台的组织中枢</text>
<text x="156" y="222" fill="#DCE9FF" font-size="17" font-family="Microsoft YaHei, PingFang SC, sans-serif">把项目、标段、负责人、周期、状态和点位规模放在同一张总表里，便于管理员快速识别推进风险。</text>
<rect x="1104" y="160" width="132" height="112" rx="22" fill="#FFFFFF1F" stroke="#FFFFFF30"/><text x="1128" y="194" fill="#DCE9FF" font-size="14" font-family="Microsoft YaHei, PingFang SC, sans-serif">进行中</text><text x="1128" y="244" fill="white" font-size="40" font-family="Microsoft YaHei, PingFang SC, sans-serif" font-weight="700">8</text>
<rect x="1254" y="160" width="132" height="112" rx="22" fill="#FFFFFF1F" stroke="#FFFFFF30"/><text x="1278" y="194" fill="#DCE9FF" font-size="14" font-family="Microsoft YaHei, PingFang SC, sans-serif">延期预警</text><text x="1278" y="244" fill="white" font-size="40" font-family="Microsoft YaHei, PingFang SC, sans-serif" font-weight="700">2</text>
<rect x="1404" y="160" width="132" height="112" rx="22" fill="#FFFFFF1F" stroke="#FFFFFF30"/><text x="1428" y="194" fill="#DCE9FF" font-size="14" font-family="Microsoft YaHei, PingFang SC, sans-serif">总点位</text><text x="1428" y="244" fill="white" font-size="40" font-family="Microsoft YaHei, PingFang SC, sans-serif" font-weight="700">1286</text>
<rect x="120" y="332" width="1032" height="724" rx="26" fill="white" filter="url(#shadow)"/>
<text x="152" y="376" fill="#1F2D3D" font-size="24" font-family="Microsoft YaHei, PingFang SC, sans-serif" font-weight="700">项目列表</text>
<text x="152" y="404" fill="#909399" font-size="14" font-family="Microsoft YaHei, PingFang SC, sans-serif">支持编号、负责人、周期、状态、审核压力、导出入口的多维管理</text>
<rect x="152" y="430" width="968" height="56" rx="16" fill="#F7FAFE"/>
<text x="184" y="464" fill="#909399" font-size="13" font-family="Microsoft YaHei, PingFang SC, sans-serif">项目名称</text><text x="430" y="464" fill="#909399" font-size="13" font-family="Microsoft YaHei, PingFang SC, sans-serif">负责人</text><text x="584" y="464" fill="#909399" font-size="13" font-family="Microsoft YaHei, PingFang SC, sans-serif">周期</text><text x="770" y="464" fill="#909399" font-size="13" font-family="Microsoft YaHei, PingFang SC, sans-serif">点位进度</text><text x="942" y="464" fill="#909399" font-size="13" font-family="Microsoft YaHei, PingFang SC, sans-serif">状态</text>
<rect x="152" y="502" width="968" height="96" rx="18" fill="#FFFFFF" stroke="#E7EDF4"/>
<text x="184" y="538" fill="#1F2D3D" font-size="18" font-family="Microsoft YaHei, PingFang SC, sans-serif" font-weight="700">亳州入河排污口项目</text><text x="184" y="564" fill="#606266" font-size="13" font-family="Microsoft YaHei, PingFang SC, sans-serif">QH-2026-01 · 模板 3 套 · 审核规则已启用</text><text x="430" y="548" fill="#606266" font-size="14" font-family="Microsoft YaHei, PingFang SC, sans-serif">李航 / 管理员</text><text x="584" y="548" fill="#606266" font-size="14" font-family="Microsoft YaHei, PingFang SC, sans-serif">2026.04.01 - 2026.09.30</text><rect x="770" y="534" width="114" height="12" rx="6" fill="#EAF1FB"/><rect x="770" y="534" width="88" height="12" rx="6" fill="#1664FF"/><text x="770" y="570" fill="#606266" font-size="13" font-family="Microsoft YaHei, PingFang SC, sans-serif">964 / 1286 已完成</text><rect x="944" y="528" width="92" height="30" rx="15" fill="#EDF9E8"/><text x="990" y="548" text-anchor="middle" fill="#67C23A" font-size="12" font-family="Microsoft YaHei, PingFang SC, sans-serif" font-weight="700">正常推进</text><text x="184" y="586" fill="#1664FF" font-size="13" font-family="Microsoft YaHei, PingFang SC, sans-serif">查看详情  成员管理  导出项目数据</text>
<rect x="152" y="616" width="968" height="96" rx="18" fill="#FFFFFF" stroke="#E7EDF4"/>
<text x="184" y="652" fill="#1F2D3D" font-size="18" font-family="Microsoft YaHei, PingFang SC, sans-serif" font-weight="700">南岸重点排口复核</text><text x="184" y="678" fill="#606266" font-size="13" font-family="Microsoft YaHei, PingFang SC, sans-serif">QH-2026-02 · 复核项目 · 驳回重提比例偏高</text><text x="430" y="662" fill="#606266" font-size="14" font-family="Microsoft YaHei, PingFang SC, sans-serif">张敏 / 审核组</text><text x="584" y="662" fill="#606266" font-size="14" font-family="Microsoft YaHei, PingFang SC, sans-serif">2026.04.08 - 2026.06.20</text><rect x="770" y="648" width="114" height="12" rx="6" fill="#FCEFEF"/><rect x="770" y="648" width="52" height="12" rx="6" fill="#F56C6C"/><text x="770" y="684" fill="#606266" font-size="13" font-family="Microsoft YaHei, PingFang SC, sans-serif">126 / 312 已完成</text><rect x="944" y="642" width="92" height="30" rx="15" fill="#FFF4E8"/><text x="990" y="662" text-anchor="middle" fill="#E6A23C" font-size="12" font-family="Microsoft YaHei, PingFang SC, sans-serif" font-weight="700">延期预警</text><text x="184" y="700" fill="#1664FF" font-size="13" font-family="Microsoft YaHei, PingFang SC, sans-serif">查看详情  催办采集  审核积压分析</text>
<rect x="152" y="730" width="968" height="96" rx="18" fill="#FFFFFF" stroke="#E7EDF4"/>
<text x="184" y="766" fill="#1F2D3D" font-size="18" font-family="Microsoft YaHei, PingFang SC, sans-serif" font-weight="700">城区支流补采专项</text><text x="184" y="792" fill="#606266" font-size="13" font-family="Microsoft YaHei, PingFang SC, sans-serif">QH-2026-03 · 第三方协同 · Token 72 小时有效</text><text x="430" y="776" fill="#606266" font-size="14" font-family="Microsoft YaHei, PingFang SC, sans-serif">王哲 / 第三方联络</text><text x="584" y="776" fill="#606266" font-size="14" font-family="Microsoft YaHei, PingFang SC, sans-serif">2026.05.01 - 2026.07.31</text><rect x="770" y="762" width="114" height="12" rx="6" fill="#EAF1FB"/><rect x="770" y="762" width="34" height="12" rx="6" fill="#1664FF"/><text x="770" y="798" fill="#606266" font-size="13" font-family="Microsoft YaHei, PingFang SC, sans-serif">54 / 268 已完成</text><rect x="944" y="756" width="92" height="30" rx="15" fill="#E8F3FF"/><text x="990" y="776" text-anchor="middle" fill="#1664FF" font-size="12" font-family="Microsoft YaHei, PingFang SC, sans-serif" font-weight="700">筹备中</text><text x="184" y="814" fill="#1664FF" font-size="13" font-family="Microsoft YaHei, PingFang SC, sans-serif">查看详情  分享入口  权限配置</text>
<rect x="1180" y="332" width="392" height="352" rx="26" fill="white" filter="url(#shadow)"/>
<text x="1212" y="376" fill="#1F2D3D" font-size="24" font-family="Microsoft YaHei, PingFang SC, sans-serif" font-weight="700">项目概览</text><text x="1212" y="404" fill="#909399" font-size="14" font-family="Microsoft YaHei, PingFang SC, sans-serif">把推进压力、审核积压和标段分布做成侧栏洞察</text>
<rect x="1212" y="430" width="328" height="88" rx="18" fill="#F7FAFE"/><text x="1236" y="462" fill="#606266" font-size="13" font-family="Microsoft YaHei, PingFang SC, sans-serif">本周新增待审</text><text x="1236" y="502" fill="#1F2D3D" font-size="34" font-family="Microsoft YaHei, PingFang SC, sans-serif" font-weight="700">46</text><text x="1330" y="502" fill="#67C23A" font-size="14" font-family="Microsoft YaHei, PingFang SC, sans-serif">较上周 -12%</text>
<rect x="1212" y="534" width="328" height="126" rx="18" fill="#F7FAFE"/><text x="1236" y="566" fill="#1F2D3D" font-size="16" font-family="Microsoft YaHei, PingFang SC, sans-serif" font-weight="700">标段完成率</text><rect x="1238" y="590" width="276" height="12" rx="6" fill="#EAF1FB"/><rect x="1238" y="590" width="214" height="12" rx="6" fill="#1664FF"/><text x="1238" y="625" fill="#606266" font-size="13" font-family="Microsoft YaHei, PingFang SC, sans-serif">A1 标段 78%</text><rect x="1238" y="634" width="276" height="12" rx="6" fill="#FCEFEF"/><rect x="1238" y="634" width="126" height="12" rx="6" fill="#F56C6C"/><text x="1238" y="669" fill="#606266" font-size="13" font-family="Microsoft YaHei, PingFang SC, sans-serif">南岸复核 45%</text>
<rect x="1180" y="704" width="392" height="352" rx="26" fill="white" filter="url(#shadow)"/>
<text x="1212" y="748" fill="#1F2D3D" font-size="24" font-family="Microsoft YaHei, PingFang SC, sans-serif" font-weight="700">成员与权限</text><text x="1212" y="776" fill="#909399" font-size="14" font-family="Microsoft YaHei, PingFang SC, sans-serif">项目负责人、采集员、审核员与第三方协同的角色配置</text>
<rect x="1212" y="804" width="328" height="74" rx="18" fill="#F9FBFF" stroke="#E7EDF4"/><circle cx="1248" cy="841" r="18" fill="#1664FF"/><text x="1248" y="847" text-anchor="middle" fill="white" font-size="13" font-family="Microsoft YaHei, PingFang SC, sans-serif" font-weight="700">LH</text><text x="1278" y="834" fill="#1F2D3D" font-size="16" font-family="Microsoft YaHei, PingFang SC, sans-serif" font-weight="700">李航</text><text x="1278" y="858" fill="#606266" font-size="13" font-family="Microsoft YaHei, PingFang SC, sans-serif">管理员 · 全局导出 / 模板配置 / 项目创建</text>
<rect x="1212" y="890" width="328" height="74" rx="18" fill="#F9FBFF" stroke="#E7EDF4"/><circle cx="1248" cy="927" r="18" fill="#67C23A"/><text x="1248" y="933" text-anchor="middle" fill="white" font-size="13" font-family="Microsoft YaHei, PingFang SC, sans-serif" font-weight="700">ZM</text><text x="1278" y="920" fill="#1F2D3D" font-size="16" font-family="Microsoft YaHei, PingFang SC, sans-serif" font-weight="700">张敏</text><text x="1278" y="944" fill="#606266" font-size="13" font-family="Microsoft YaHei, PingFang SC, sans-serif">审核员 · 审核反馈 / 版本对比 / PDF 报告</text>
<rect x="1212" y="976" width="328" height="74" rx="18" fill="#F9FBFF" stroke="#E7EDF4"/><circle cx="1248" cy="1013" r="18" fill="#E6A23C"/><text x="1248" y="1019" text-anchor="middle" fill="white" font-size="13" font-family="Microsoft YaHei, PingFang SC, sans-serif" font-weight="700">3P</text><text x="1278" y="1006" fill="#1F2D3D" font-size="16" font-family="Microsoft YaHei, PingFang SC, sans-serif" font-weight="700">第三方入口</text><text x="1278" y="1030" fill="#606266" font-size="13" font-family="Microsoft YaHei, PingFang SC, sans-serif">受限查看 / 协助填报 / 72 小时 Token</text>
</svg>
