<svg width="1600" height="1120" viewBox="0 0 1600 1120" fill="none" xmlns="http://www.w3.org/2000/svg">
<defs><linearGradient id="bg" x1="0" y1="0" x2="1600" y2="1120" gradientUnits="userSpaceOnUse"><stop stop-color="#F4F8FC"/><stop offset="1" stop-color="#EAF2FF"/></linearGradient><filter id="shadow" x="-20%" y="-20%" width="140%" height="140%"><feDropShadow dx="0" dy="14" stdDeviation="20" flood-color="#9BB7E680"/></filter></defs>
<rect width="1600" height="1120" fill="url(#bg)"/>
<rect x="0" y="0" width="96" height="1120" fill="#2C3E50"/>
<rect x="24" y="28" width="48" height="48" rx="14" fill="#1664FF"/><text x="48" y="59" text-anchor="middle" fill="white" font-size="24" font-family="Microsoft YaHei, PingFang SC, sans-serif" font-weight="700">青</text>
<rect x="24" y="592" width="48" height="48" rx="14" fill="#EEF4FF"/>
<rect x="120" y="28" width="1452" height="84" rx="24" fill="#FFFFFF" filter="url(#shadow)"/>
<text x="156" y="62" fill="#1F2D3D" font-size="30" font-family="Microsoft YaHei, PingFang SC, sans-serif" font-weight="700">操作日志中心</text>
<text x="156" y="88" fill="#7B8794" font-size="15" font-family="Microsoft YaHei, PingFang SC, sans-serif">记录敏感动作、审核指令、导出行为、权限变更与第三方访问轨迹</text>
<rect x="1380" y="40" width="128" height="44" rx="14" fill="#1664FF"/><text x="1444" y="67" text-anchor="middle" fill="white" font-size="15" font-family="Microsoft YaHei, PingFang SC, sans-serif" font-weight="700">导出日志</text>
<rect x="120" y="136" width="360" height="920" rx="26" fill="white" filter="url(#shadow)"/>
<text x="152" y="180" fill="#1F2D3D" font-size="24" font-family="Microsoft YaHei, PingFang SC, sans-serif" font-weight="700">筛选条件</text>
<text x="152" y="208" fill="#909399" font-size="14" font-family="Microsoft YaHei, PingFang SC, sans-serif">快速锁定时间、人员、动作类型与风险级别</text>
<rect x="152" y="238" width="296" height="48" rx="16" fill="#F7FAFE"/><text x="176" y="268" fill="#606266" font-size="14" font-family="Microsoft YaHei, PingFang SC, sans-serif">时间范围：近 7 天</text>
<rect x="152" y="300" width="296" height="48" rx="16" fill="#F7FAFE"/><text x="176" y="330" fill="#606266" font-size="14" font-family="Microsoft YaHei, PingFang SC, sans-serif">操作人：全部</text>
<rect x="152" y="362" width="140" height="36" rx="18" fill="#E8F3FF"/><text x="222" y="385" text-anchor="middle" fill="#1664FF" font-size="13" font-family="Microsoft YaHei, PingFang SC, sans-serif">敏感动作</text>
<rect x="308" y="362" width="140" height="36" rx="18" fill="#F5F7FA"/><text x="378" y="385" text-anchor="middle" fill="#606266" font-size="13" font-family="Microsoft YaHei, PingFang SC, sans-serif">审核行为</text>
<rect x="152" y="430" width="296" height="170" rx="18" fill="#F7FAFE"/>
<text x="176" y="464" fill="#1F2D3D" font-size="16" font-family="Microsoft YaHei, PingFang SC, sans-serif" font-weight="700">风险级别</text>
<circle cx="184" cy="502" r="7" fill="#67C23A"/><text x="200" y="507" fill="#606266" font-size="13" font-family="Microsoft YaHei, PingFang SC, sans-serif">普通 128</text>
<circle cx="184" cy="538" r="7" fill="#E6A23C"/><text x="200" y="543" fill="#606266" font-size="13" font-family="Microsoft YaHei, PingFang SC, sans-serif">提醒 22</text>
<circle cx="184" cy="574" r="7" fill="#F56C6C"/><text x="200" y="579" fill="#606266" font-size="13" font-family="Microsoft YaHei, PingFang SC, sans-serif">高风险 4</text>
<rect x="152" y="630" width="296" height="394" rx="18" fill="#1664FF"/>
<text x="176" y="668" fill="white" font-size="18" font-family="Microsoft YaHei, PingFang SC, sans-serif" font-weight="700">风控摘要</text>
<text x="176" y="710" fill="#DCE9FF" font-size="13" font-family="Microsoft YaHei, PingFang SC, sans-serif">近 7 天共拦截 4 次超权限访问</text>
<text x="176" y="748" fill="#DCE9FF" font-size="13" font-family="Microsoft YaHei, PingFang SC, sans-serif">2 次来自第三方协作入口</text>
<text x="176" y="786" fill="#DCE9FF" font-size="13" font-family="Microsoft YaHei, PingFang SC, sans-serif">1 次导出敏感数据被二次确认取消</text>
<text x="176" y="824" fill="#DCE9FF" font-size="13" font-family="Microsoft YaHei, PingFang SC, sans-serif">1 次角色调整已完成复核</text>
<rect x="176" y="884" width="128" height="36" rx="18" fill="white"/><text x="240" y="907" text-anchor="middle" fill="#1664FF" font-size="13" font-family="Microsoft YaHei, PingFang SC, sans-serif" font-weight="700">查看高风险</text>
<rect x="508" y="136" width="1064" height="920" rx="26" fill="white" filter="url(#shadow)"/>
<text x="540" y="180" fill="#1F2D3D" font-size="24" font-family="Microsoft YaHei, PingFang SC, sans-serif" font-weight="700">日志列表</text>
<text x="540" y="208" fill="#909399" font-size="14" font-family="Microsoft YaHei, PingFang SC, sans-serif">重点突出谁在什么时候对什么对象执行了什么操作</text>
<rect x="540" y="236" width="1000" height="60" rx="16" fill="#F7FAFE"/>
<text x="574" y="273" fill="#909399" font-size="13" font-family="Microsoft YaHei, PingFang SC, sans-serif">时间</text><text x="760" y="273" fill="#909399" font-size="13" font-family="Microsoft YaHei, PingFang SC, sans-serif">操作人</text><text x="942" y="273" fill="#909399" font-size="13" font-family="Microsoft YaHei, PingFang SC, sans-serif">动作</text><text x="1160" y="273" fill="#909399" font-size="13" font-family="Microsoft YaHei, PingFang SC, sans-serif">对象</text><text x="1350" y="273" fill="#909399" font-size="13" font-family="Microsoft YaHei, PingFang SC, sans-serif">风险</text>
<rect x="540" y="316" width="1000" height="96" rx="18" fill="#FFFFFF" stroke="#E7EDF4"/>
<text x="574" y="352" fill="#1F2D3D" font-size="15" font-family="Microsoft YaHei, PingFang SC, sans-serif" font-weight="700">2026.04.28 10:24</text><text x="760" y="352" fill="#606266" font-size="14" font-family="Microsoft YaHei, PingFang SC, sans-serif">李航</text><text x="942" y="352" fill="#606266" font-size="14" font-family="Microsoft YaHei, PingFang SC, sans-serif">导出项目点位清单</text><text x="1160" y="352" fill="#606266" font-size="14" font-family="Microsoft YaHei, PingFang SC, sans-serif">亳州入河排污口项目</text><rect x="1340" y="336" width="90" height="30" rx="15" fill="#EDF9E8"/><text x="1385" y="356" text-anchor="middle" fill="#67C23A" font-size="12" font-family="Microsoft YaHei, PingFang SC, sans-serif" font-weight="700">普通</text><text x="574" y="382" fill="#909399" font-size="12" font-family="Microsoft YaHei, PingFang SC, sans-serif">文件范围：2026.04.01 - 2026.04.30 · 1286 条数据</text>
<rect x="540" y="428" width="1000" height="96" rx="18" fill="#FFFFFF" stroke="#E7EDF4"/>
<text x="574" y="464" fill="#1F2D3D" font-size="15" font-family="Microsoft YaHei, PingFang SC, sans-serif" font-weight="700">2026.04.28 10:08</text><text x="760" y="464" fill="#606266" font-size="14" font-family="Microsoft YaHei, PingFang SC, sans-serif">安徽协测公司</text><text x="942" y="464" fill="#606266" font-size="14" font-family="Microsoft YaHei, PingFang SC, sans-serif">访问全局导出中心</text><text x="1160" y="464" fill="#606266" font-size="14" font-family="Microsoft YaHei, PingFang SC, sans-serif">第三方协作入口</text><rect x="1340" y="448" width="90" height="30" rx="15" fill="#FDEDEE"/><text x="1385" y="468" text-anchor="middle" fill="#F56C6C" font-size="12" font-family="Microsoft YaHei, PingFang SC, sans-serif" font-weight="700">高风险</text><text x="574" y="494" fill="#909399" font-size="12" font-family="Microsoft YaHei, PingFang SC, sans-serif">结果：权限系统已阻断，并写入风控记录</text>
<rect x="540" y="540" width="1000" height="96" rx="18" fill="#FFFFFF" stroke="#E7EDF4"/>
<text x="574" y="576" fill="#1F2D3D" font-size="15" font-family="Microsoft YaHei, PingFang SC, sans-serif" font-weight="700">2026.04.28 09:46</text><text x="760" y="576" fill="#606266" font-size="14" font-family="Microsoft YaHei, PingFang SC, sans-serif">张敏</text><text x="942" y="576" fill="#606266" font-size="14" font-family="Microsoft YaHei, PingFang SC, sans-serif">驳回审核单</text><text x="1160" y="576" fill="#606266" font-size="14" font-family="Microsoft YaHei, PingFang SC, sans-serif">S-017 南岸泵站 v2</text><rect x="1340" y="560" width="90" height="30" rx="15" fill="#FFF4E8"/><text x="1385" y="580" text-anchor="middle" fill="#E6A23C" font-size="12" font-family="Microsoft YaHei, PingFang SC, sans-serif" font-weight="700">提醒</text><text x="574" y="606" fill="#909399" font-size="12" font-family="Microsoft YaHei, PingFang SC, sans-serif">原因：定位偏移，请重新纠偏并补拍环境照</text>
<rect x="540" y="664" width="484" height="360" rx="20" fill="#F7FAFE"/>
<text x="570" y="704" fill="#1F2D3D" font-size="20" font-family="Microsoft YaHei, PingFang SC, sans-serif" font-weight="700">日志趋势</text>
<rect x="620" y="890" width="62" height="82" rx="18" fill="#EAF1FB"/><rect x="620" y="934" width="62" height="38" rx="18" fill="#1664FF"/>
<rect x="726" y="842" width="62" height="130" rx="18" fill="#EAF1FB"/><rect x="726" y="892" width="62" height="80" rx="18" fill="#1664FF"/>
<rect x="832" y="792" width="62" height="180" rx="18" fill="#EAF1FB"/><rect x="832" y="856" width="62" height="116" rx="18" fill="#1664FF"/>
<text x="628" y="996" fill="#606266" font-size="12" font-family="Microsoft YaHei, PingFang SC, sans-serif">一</text><text x="734" y="996" fill="#606266" font-size="12" font-family="Microsoft YaHei, PingFang SC, sans-serif">二</text><text x="840" y="996" fill="#606266" font-size="12" font-family="Microsoft YaHei, PingFang SC, sans-serif">三</text>
<rect x="1056" y="664" width="484" height="360" rx="20" fill="#1664FF"/>
<text x="1086" y="704" fill="white" font-size="20" font-family="Microsoft YaHei, PingFang SC, sans-serif" font-weight="700">高风险事件详情</text>
<text x="1086" y="750" fill="#DCE9FF" font-size="13" font-family="Microsoft YaHei, PingFang SC, sans-serif">事件：第三方尝试访问导出中心</text>
<text x="1086" y="788" fill="#DCE9FF" font-size="13" font-family="Microsoft YaHei, PingFang SC, sans-serif">来源入口：南岸补采协作入口</text>
<text x="1086" y="826" fill="#DCE9FF" font-size="13" font-family="Microsoft YaHei, PingFang SC, sans-serif">系统动作：阻断、告警、记录 IP 与操作时间</text>
<rect x="1086" y="884" width="140" height="36" rx="18" fill="white"/><text x="1156" y="907" text-anchor="middle" fill="#1664FF" font-size="13" font-family="Microsoft YaHei, PingFang SC, sans-serif" font-weight="700">查看完整链路</text>
</svg>
