<svg width="1600" height="1120" viewBox="0 0 1600 1120" fill="none" xmlns="http://www.w3.org/2000/svg">
<defs><linearGradient id="bg" x1="0" y1="0" x2="1600" y2="1120" gradientUnits="userSpaceOnUse"><stop stop-color="#F4F8FC"/><stop offset="1" stop-color="#EAF2FF"/></linearGradient><filter id="shadow" x="-20%" y="-20%" width="140%" height="140%"><feDropShadow dx="0" dy="14" stdDeviation="20" flood-color="#9BB7E680"/></filter></defs>
<rect width="1600" height="1120" fill="url(#bg)"/>
<rect x="0" y="0" width="96" height="1120" fill="#2C3E50"/>
<rect x="24" y="28" width="48" height="48" rx="14" fill="#1664FF"/><text x="48" y="59" text-anchor="middle" fill="white" font-size="24" font-family="Microsoft YaHei, PingFang SC, sans-serif" font-weight="700">青</text>
<rect x="24" y="524" width="48" height="48" rx="14" fill="#EEF4FF"/>
<rect x="120" y="28" width="1452" height="84" rx="24" fill="#FFFFFF" filter="url(#shadow)"/>
<text x="156" y="62" fill="#1F2D3D" font-size="30" font-family="Microsoft YaHei, PingFang SC, sans-serif" font-weight="700">用户与角色管理</text>
<text x="156" y="88" fill="#7B8794" font-size="15" font-family="Microsoft YaHei, PingFang SC, sans-serif">账号、角色、权限边界、项目范围与启停状态统一管理</text>
<rect x="1388" y="40" width="120" height="44" rx="14" fill="#1664FF"/><text x="1448" y="67" text-anchor="middle" fill="white" font-size="15" font-family="Microsoft YaHei, PingFang SC, sans-serif" font-weight="700">新增用户</text>
<rect x="120" y="136" width="380" height="920" rx="26" fill="white" filter="url(#shadow)"/>
<text x="152" y="180" fill="#1F2D3D" font-size="24" font-family="Microsoft YaHei, PingFang SC, sans-serif" font-weight="700">角色列表</text>
<text x="152" y="208" fill="#909399" font-size="14" font-family="Microsoft YaHei, PingFang SC, sans-serif">角色决定页面可见性与可执行动作</text>
<rect x="152" y="236" width="316" height="104" rx="20" fill="#1664FF"/>
<text x="182" y="276" fill="white" font-size="20" font-family="Microsoft YaHei, PingFang SC, sans-serif" font-weight="700">管理员</text>
<text x="182" y="308" fill="#DCE9FF" font-size="13" font-family="Microsoft YaHei, PingFang SC, sans-serif">项目创建 / 模板配置 / 全局导出 / 权限配置</text>
<rect x="152" y="360" width="316" height="104" rx="20" fill="#F7FAFE" stroke="#E7EDF4"/>
<text x="182" y="400" fill="#1F2D3D" font-size="20" font-family="Microsoft YaHei, PingFang SC, sans-serif" font-weight="700">审核员</text>
<text x="182" y="432" fill="#606266" font-size="13" font-family="Microsoft YaHei, PingFang SC, sans-serif">审核反馈 / 版本对比 / PDF 生成</text>
<rect x="152" y="484" width="316" height="104" rx="20" fill="#F7FAFE" stroke="#E7EDF4"/>
<text x="182" y="524" fill="#1F2D3D" font-size="20" font-family="Microsoft YaHei, PingFang SC, sans-serif" font-weight="700">采集员</text>
<text x="182" y="556" fill="#606266" font-size="13" font-family="Microsoft YaHei, PingFang SC, sans-serif">地图打点 / 表单填报 / 拍照上传 / 草稿保存</text>
<rect x="152" y="608" width="316" height="132" rx="20" fill="#F7FAFE" stroke="#E7EDF4"/>
<text x="182" y="648" fill="#1F2D3D" font-size="20" font-family="Microsoft YaHei, PingFang SC, sans-serif" font-weight="700">第三方协作</text>
<text x="182" y="680" fill="#606266" font-size="13" font-family="Microsoft YaHei, PingFang SC, sans-serif">指定点位范围 / 协助填报 / 上传图片</text>
<text x="182" y="710" fill="#606266" font-size="13" font-family="Microsoft YaHei, PingFang SC, sans-serif">不可审核 / 不可删除 / 不可全局导出</text>
<rect x="528" y="136" width="1044" height="540" rx="26" fill="white" filter="url(#shadow)"/>
<text x="560" y="180" fill="#1F2D3D" font-size="24" font-family="Microsoft YaHei, PingFang SC, sans-serif" font-weight="700">用户列表</text>
<text x="560" y="208" fill="#909399" font-size="14" font-family="Microsoft YaHei, PingFang SC, sans-serif">支持搜索、启停账号、切换角色与绑定项目范围</text>
<rect x="560" y="236" width="980" height="58" rx="16" fill="#F7FAFE"/>
<text x="594" y="271" fill="#909399" font-size="13" font-family="Microsoft YaHei, PingFang SC, sans-serif">用户</text><text x="840" y="271" fill="#909399" font-size="13" font-family="Microsoft YaHei, PingFang SC, sans-serif">角色</text><text x="1012" y="271" fill="#909399" font-size="13" font-family="Microsoft YaHei, PingFang SC, sans-serif">负责项目</text><text x="1242" y="271" fill="#909399" font-size="13" font-family="Microsoft YaHei, PingFang SC, sans-serif">状态</text><text x="1386" y="271" fill="#909399" font-size="13" font-family="Microsoft YaHei, PingFang SC, sans-serif">操作</text>
<rect x="560" y="314" width="980" height="94" rx="18" fill="#FFFFFF" stroke="#E7EDF4"/>
<circle cx="604" cy="361" r="18" fill="#1664FF"/><text x="604" y="367" text-anchor="middle" fill="white" font-size="13" font-family="Microsoft YaHei, PingFang SC, sans-serif" font-weight="700">LH</text><text x="636" y="354" fill="#1F2D3D" font-size="16" font-family="Microsoft YaHei, PingFang SC, sans-serif" font-weight="700">李航</text><text x="636" y="378" fill="#606266" font-size="13" font-family="Microsoft YaHei, PingFang SC, sans-serif">lihang@qinghong.cn</text><text x="840" y="366" fill="#606266" font-size="14" font-family="Microsoft YaHei, PingFang SC, sans-serif">管理员</text><text x="1012" y="366" fill="#606266" font-size="14" font-family="Microsoft YaHei, PingFang SC, sans-serif">亳州入河排污口项目</text><rect x="1236" y="350" width="92" height="30" rx="15" fill="#EDF9E8"/><text x="1282" y="370" text-anchor="middle" fill="#67C23A" font-size="12" font-family="Microsoft YaHei, PingFang SC, sans-serif" font-weight="700">启用中</text><text x="1386" y="366" fill="#1664FF" font-size="14" font-family="Microsoft YaHei, PingFang SC, sans-serif">编辑  重置密码</text>
<rect x="560" y="426" width="980" height="94" rx="18" fill="#FFFFFF" stroke="#E7EDF4"/>
<circle cx="604" cy="473" r="18" fill="#67C23A"/><text x="604" y="479" text-anchor="middle" fill="white" font-size="13" font-family="Microsoft YaHei, PingFang SC, sans-serif" font-weight="700">ZM</text><text x="636" y="466" fill="#1F2D3D" font-size="16" font-family="Microsoft YaHei, PingFang SC, sans-serif" font-weight="700">张敏</text><text x="636" y="490" fill="#606266" font-size="13" font-family="Microsoft YaHei, PingFang SC, sans-serif">审核组长</text><text x="840" y="478" fill="#606266" font-size="14" font-family="Microsoft YaHei, PingFang SC, sans-serif">审核员</text><text x="1012" y="478" fill="#606266" font-size="14" font-family="Microsoft YaHei, PingFang SC, sans-serif">南岸复核段 / A1 标段</text><rect x="1236" y="462" width="92" height="30" rx="15" fill="#EDF9E8"/><text x="1282" y="482" text-anchor="middle" fill="#67C23A" font-size="12" font-family="Microsoft YaHei, PingFang SC, sans-serif" font-weight="700">启用中</text><text x="1386" y="478" fill="#1664FF" font-size="14" font-family="Microsoft YaHei, PingFang SC, sans-serif">编辑  查看日志</text>
<rect x="560" y="538" width="980" height="94" rx="18" fill="#FFFFFF" stroke="#E7EDF4"/>
<circle cx="604" cy="585" r="18" fill="#E6A23C"/><text x="604" y="591" text-anchor="middle" fill="white" font-size="13" font-family="Microsoft YaHei, PingFang SC, sans-serif" font-weight="700">3P</text><text x="636" y="578" fill="#1F2D3D" font-size="16" font-family="Microsoft YaHei, PingFang SC, sans-serif" font-weight="700">安徽协测公司</text><text x="636" y="602" fill="#606266" font-size="13" font-family="Microsoft YaHei, PingFang SC, sans-serif">第三方协作入口</text><text x="840" y="590" fill="#606266" font-size="14" font-family="Microsoft YaHei, PingFang SC, sans-serif">第三方协作</text><text x="1012" y="590" fill="#606266" font-size="14" font-family="Microsoft YaHei, PingFang SC, sans-serif">城区支流补采专项</text><rect x="1236" y="574" width="92" height="30" rx="15" fill="#FFF4E8"/><text x="1282" y="594" text-anchor="middle" fill="#E6A23C" font-size="12" font-family="Microsoft YaHei, PingFang SC, sans-serif" font-weight="700">72h 有效</text><text x="1386" y="590" fill="#1664FF" font-size="14" font-family="Microsoft YaHei, PingFang SC, sans-serif">重置 Token</text>
<rect x="528" y="704" width="510" height="352" rx="26" fill="white" filter="url(#shadow)"/>
<text x="560" y="748" fill="#1F2D3D" font-size="24" font-family="Microsoft YaHei, PingFang SC, sans-serif" font-weight="700">权限明细</text>
<text x="560" y="776" fill="#909399" font-size="14" font-family="Microsoft YaHei, PingFang SC, sans-serif">当前选中角色：管理员</text>
<rect x="560" y="806" width="446" height="200" rx="18" fill="#F7FAFE"/>
<text x="588" y="842" fill="#606266" font-size="13" font-family="Microsoft YaHei, PingFang SC, sans-serif">可见页面：项目管理、模板设计、地图中心、审核详情、导出中心、日志中心</text>
<text x="588" y="884" fill="#606266" font-size="13" font-family="Microsoft YaHei, PingFang SC, sans-serif">敏感动作：全局导出、权限修改、撤销协作链接</text>
<text x="588" y="926" fill="#606266" font-size="13" font-family="Microsoft YaHei, PingFang SC, sans-serif">项目范围：全部项目</text>
<rect x="1062" y="704" width="510" height="352" rx="26" fill="white" filter="url(#shadow)"/>
<text x="1094" y="748" fill="#1F2D3D" font-size="24" font-family="Microsoft YaHei, PingFang SC, sans-serif" font-weight="700">账号安全</text>
<text x="1094" y="776" fill="#909399" font-size="14" font-family="Microsoft YaHei, PingFang SC, sans-serif">登录保护与账号生命周期管理</text>
<rect x="1094" y="806" width="446" height="92" rx="18" fill="#F7FAFE"/>
<text x="1122" y="842" fill="#1F2D3D" font-size="16" font-family="Microsoft YaHei, PingFang SC, sans-serif" font-weight="700">密码策略</text>
<text x="1122" y="870" fill="#606266" font-size="13" font-family="Microsoft YaHei, PingFang SC, sans-serif">支持重置密码、强制首次登录修改、异常登录提醒</text>
<rect x="1094" y="918" width="446" height="102" rx="18" fill="#1664FF"/>
<text x="1122" y="954" fill="white" font-size="18" font-family="Microsoft YaHei, PingFang SC, sans-serif" font-weight="700">风险操作保护</text>
<text x="1122" y="986" fill="#DCE9FF" font-size="13" font-family="Microsoft YaHei, PingFang SC, sans-serif">停用账号、修改角色、开放导出权限时均要求二次确认并记录日志</text>
</svg>
